<?xml version="1.0" encoding="UTF-8"?>
<svg width="360" height="800" xmlns="http://www.w3.org/2000/svg">
  <!-- Screen Background -->
  <rect width="360" height="800" fill="#f5f5f5"/>
  
  <!-- Status Bar -->
  <rect width="360" height="24" fill="#333"/>
  <text x="10" y="18" fill="white" font-size="12" font-family="Arial">9:41 AM</text>
  <text x="330" y="18" fill="white" font-size="12" font-family="Arial" text-anchor="end">100%</text>
  
  <!-- Header -->
  <rect y="24" width="360" height="60" fill="white" stroke="#e0e0e0"/>
  <text x="20" y="60" font-size="24" font-family="Arial">←</text>
  <text x="60" y="60" font-size="20" font-weight="bold" font-family="Arial">Analytics</text>
  <text x="340" y="60" font-size="20" font-family="Arial" text-anchor="end">📊</text>
  
  <!-- Tournament Summary -->
  <rect x="20" y="100" width="320" height="50" rx="8" fill="#f0f8ff" stroke="#2196F3"/>
  <text x="30" y="120" font-size="16" font-weight="bold" font-family="Arial">📈 Tournament Analytics</text>
  <text x="30" y="135" font-size="14" fill="#666" font-family="Arial">Partnership performance insights</text>
  
  <!-- Quick Stats -->
  <text x="20" y="175" font-size="16" font-weight="bold" font-family="Arial">Key Metrics</text>
  
  <!-- Stats Row 1 -->
  <rect x="20" y="190" width="150" height="70" rx="8" fill="#e8f5e9" stroke="#4CAF50"/>
  <text x="30" y="210" font-size="14" font-family="Arial">Total Matches</text>
  <text x="30" y="235" font-size="28" font-weight="bold" fill="#4CAF50" font-family="Arial">12</text>
  <text x="30" y="250" font-size="12" fill="#666" font-family="Arial">Complete</text>
  
  <rect x="190" y="190" width="150" height="70" rx="8" fill="#fff3e0" stroke="#FF9800"/>
  <text x="200" y="210" font-size="14" font-family="Arial">Avg Duration</text>
  <text x="200" y="235" font-size="28" font-weight="bold" fill="#FF9800" font-family="Arial">18</text>
  <text x="200" y="250" font-size="12" fill="#666" font-family="Arial">minutes</text>
  
  <!-- Stats Row 2 -->
  <rect x="20" y="280" width="150" height="70" rx="8" fill="#f0f8ff" stroke="#2196F3"/>
  <text x="30" y="300" font-size="14" font-family="Arial">Total Points</text>
  <text x="30" y="325" font-size="28" font-weight="bold" fill="#2196F3" font-family="Arial">234</text>
  <text x="30" y="340" font-size="12" fill="#666" font-family="Arial">All matches</text>
  
  <rect x="190" y="280" width="150" height="70" rx="8" fill="#ffebee" stroke="#f44336"/>
  <text x="200" y="300" font-size="14" font-family="Arial">Closest Match</text>
  <text x="200" y="325" font-size="28" font-weight="bold" fill="#f44336" font-family="Arial">1</text>
  <text x="200" y="340" font-size="12" fill="#666" font-family="Arial">point diff</text>
  
  <!-- Partnership Rankings -->
  <text x="20" y="385" font-size="16" font-weight="bold" font-family="Arial">Partnership Rankings</text>
  
  <!-- Rank 1 -->
  <rect x="20" y="400" width="320" height="60" rx="8" fill="#e8f5e9" stroke="#4CAF50"/>
  <circle cx="45" cy="425" r="16" fill="#FFD700"/>
  <text x="45" y="431" text-anchor="middle" fill="white" font-size="12" font-weight="bold" font-family="Arial">1</text>
  <text x="70" y="420" font-size="16" font-weight="bold" font-family="Arial">Team C</text>
  <text x="70" y="435" font-size="14" fill="#666" font-family="Arial">Tom Davis & Lisa Miller</text>
  <text x="70" y="450" font-size="12" fill="#666" font-family="Arial">3-0 • 100% Win Rate</text>
  <text x="280" y="420" font-size="20" font-weight="bold" fill="#4CAF50" font-family="Arial">+15</text>
  <text x="280" y="440" font-size="12" fill="#666" font-family="Arial">Point Diff</text>
  
  <!-- Rank 2 -->
  <rect x="20" y="475" width="320" height="60" rx="8" fill="#fff" stroke="#e0e0e0"/>
  <circle cx="45" cy="500" r="16" fill="#C0C0C0"/>
  <text x="45" y="506" text-anchor="middle" fill="white" font-size="12" font-weight="bold" font-family="Arial">2</text>
  <text x="70" y="495" font-size="16" font-weight="bold" font-family="Arial">Team A</text>
  <text x="70" y="510" font-size="14" fill="#666" font-family="Arial">John Smith & Mary Johnson</text>
  <text x="70" y="525" font-size="12" fill="#666" font-family="Arial">2-1 • 67% Win Rate</text>
  <text x="280" y="495" font-size="20" font-weight="bold" fill="#4CAF50" font-family="Arial">+5</text>
  <text x="280" y="515" font-size="12" fill="#666" font-family="Arial">Point Diff</text>
  
  <!-- Rank 3 -->
  <rect x="20" y="550" width="320" height="60" rx="8" fill="#fff" stroke="#e0e0e0"/>
  <circle cx="45" cy="575" r="16" fill="#CD7F32"/>
  <text x="45" y="581" text-anchor="middle" fill="white" font-size="12" font-weight="bold" font-family="Arial">3</text>
  <text x="70" y="570" font-size="16" font-weight="bold" font-family="Arial">Team B</text>
  <text x="70" y="585" font-size="14" fill="#666" font-family="Arial">Bob Wilson & Alice Brown</text>
  <text x="70" y="600" font-size="12" fill="#666" font-family="Arial">1-2 • 33% Win Rate</text>
  <text x="280" y="570" font-size="20" font-weight="bold" fill="#f44336" font-family="Arial">-5</text>
  <text x="280" y="590" font-size="12" fill="#666" font-family="Arial">Point Diff</text>
  
  <!-- Rank 4 -->
  <rect x="20" y="625" width="320" height="60" rx="8" fill="#ffebee" stroke="#f44336"/>
  <circle cx="45" cy="650" r="16" fill="#999"/>
  <text x="45" y="656" text-anchor="middle" fill="white" font-size="12" font-weight="bold" font-family="Arial">4</text>
  <text x="70" y="645" font-size="16" font-weight="bold" font-family="Arial">Team D</text>
  <text x="70" y="660" font-size="14" fill="#666" font-family="Arial">Mike Thompson & Sarah Lee</text>
  <text x="70" y="675" font-size="12" fill="#666" font-family="Arial">0-3 • 0% Win Rate</text>
  <text x="280" y="645" font-size="20" font-weight="bold" fill="#f44336" font-family="Arial">-15</text>
  <text x="280" y="665" font-size="12" fill="#666" font-family="Arial">Point Diff</text>
  
  <!-- Actions -->
  <rect x="20" y="700" width="150" height="40" rx="20" fill="#2196F3"/>
  <text x="95" y="724" text-anchor="middle" fill="white" font-size="14" font-weight="bold" font-family="Arial">Full Report</text>
  
  <rect x="190" y="700" width="150" height="40" rx="20" fill="#4CAF50"/>
  <text x="265" y="724" text-anchor="middle" fill="white" font-size="14" font-weight="bold" font-family="Arial">Export Data</text>
  
  <!-- Bottom Navigation -->
  <rect y="760" width="360" height="40" fill="white" stroke="#e0e0e0"/>
  <text x="60" y="785" text-anchor="middle" font-size="12" fill="#999" font-family="Arial">Schedule</text>
  <text x="180" y="785" text-anchor="middle" font-size="12" fill="#999" font-family="Arial">Partners</text>
  <text x="300" y="785" text-anchor="middle" font-size="12" fill="#4CAF50" font-family="Arial">Analytics</text>
  
  <!-- Annotations -->
  <g transform="translate(360, 125)">
    <line x1="-20" y1="0" x2="0" y2="0" stroke="#ff5722" stroke-width="2"/>
    <rect x="5" y="-14" width="200" height="28" fill="#ff5722" rx="4"/>
    <text x="15" y="4" fill="white" font-size="12" font-family="Arial">Partnership-based analytics</text>
  </g>
  
  <g transform="translate(360, 230)">
    <line x1="-20" y1="0" x2="0" y2="0" stroke="#ff5722" stroke-width="2"/>
    <rect x="5" y="-14" width="180" height="28" fill="#ff5722" rx="4"/>
    <text x="15" y="4" fill="white" font-size="12" font-family="Arial">Real-time metrics</text>
  </g>
  
  <g transform="translate(360, 505)">
    <line x1="-20" y1="0" x2="0" y2="0" stroke="#ff5722" stroke-width="2"/>
    <rect x="5" y="-14" width="200" height="28" fill="#ff5722" rx="4"/>
    <text x="15" y="4" fill="white" font-size="12" font-family="Arial">Dynamic ranking updates</text>
  </g>
  
  <g transform="translate(360, 720)">
    <line x1="-20" y1="0" x2="0" y2="0" stroke="#ff5722" stroke-width="2"/>
    <rect x="5" y="-14" width="180" height="28" fill="#ff5722" rx="4"/>
    <text x="15" y="4" fill="white" font-size="12" font-family="Arial">Export capabilities</text>
  </g>
</svg>