<svg width="360" height="800" xmlns="http://www.w3.org/2000/svg">
  <!-- Background -->
  <rect width="360" height="800" fill="#ffffff"/>
  
  <!-- Header -->
  <rect x="0" y="0" width="360" height="60" fill="#4CAF50"/>
  <text x="20" y="35" fill="white" font-size="18" font-weight="bold">Player Profile</text>
  <text x="320" y="35" fill="white" font-size="16">⚙</text>
  
  <!-- Profile Header -->
  <rect x="20" y="80" width="320" height="100" fill="#f5f5f5" stroke="#e0e0e0" rx="8"/>
  <circle cx="70" cy="130" r="25" fill="#2196F3"/>
  <text x="70" y="138" fill="white" font-size="16" text-anchor="middle" font-weight="bold">SJ</text>
  <text x="110" y="120" font-size="18" font-weight="bold">Sarah Johnson</text>
  <text x="110" y="140" font-size="14" fill="#666">sarah.johnson@email.com</text>
  <text x="110" y="160" font-size="12" fill="#888">Claimed account • Player since 2024</text>
  
  <!-- Quick Stats -->
  <rect x="20" y="200" width="320" height="80" fill="#e8f5e9" stroke="#4CAF50" rx="8"/>
  <text x="40" y="225" font-size="16" font-weight="bold" fill="#2e7d32">Tournament Stats</text>
  <text x="40" y="245" font-size="14">Current Ranking: #2</text>
  <text x="40" y="265" font-size="14">Matches Played: 8 • Wins: 6</text>
  
  <!-- Account Management -->
  <text x="20" y="310" font-size="16" font-weight="bold">Account Management</text>
  
  <rect x="20" y="330" width="320" height="50" fill="#f5f5f5" stroke="#e0e0e0" rx="8"/>
  <text x="40" y="350" font-size="14" font-weight="bold">Email Address</text>
  <text x="40" y="370" font-size="12" fill="#666">sarah.johnson@email.com</text>
  <text x="280" y="360" font-size="12" fill="#2196F3">Edit</text>
  
  <rect x="20" y="390" width="320" height="50" fill="#f5f5f5" stroke="#e0e0e0" rx="8"/>
  <text x="40" y="410" font-size="14" font-weight="bold">Display Name</text>
  <text x="40" y="430" font-size="12" fill="#666">Sarah Johnson</text>
  <text x="280" y="420" font-size="12" fill="#2196F3">Edit</text>
  
  <!-- Match History -->
  <text x="20" y="470" font-size="16" font-weight="bold">Recent Match History</text>
  
  <rect x="20" y="490" width="320" height="50" fill="#e8f5e9" stroke="#4CAF50" rx="8"/>
  <text x="40" y="510" font-size="14" font-weight="bold">Round 3 - Won 11-8</text>
  <text x="40" y="530" font-size="12" fill="#666">With Mike Chen vs John D. & Lisa W.</text>
  
  <rect x="20" y="550" width="320" height="50" fill="#e8f5e9" stroke="#4CAF50" rx="8"/>
  <text x="40" y="570" font-size="14" font-weight="bold">Round 2 - Won 11-6</text>
  <text x="40" y="590" font-size="12" fill="#666">With Mike Chen vs Tom A. & Amy L.</text>
  
  <rect x="20" y="610" width="320" height="50" fill="#ffebee" stroke="#f44336" rx="8"/>
  <text x="40" y="630" font-size="14" font-weight="bold">Round 1 - Lost 9-11</text>
  <text x="40" y="650" font-size="12" fill="#666">With Paul K. vs Emma S. & Tim R.</text>
  
  <!-- Partnership Performance -->
  <text x="20" y="690" font-size="16" font-weight="bold">Partnership Performance</text>
  
  <rect x="20" y="710" width="320" height="50" fill="#f5f5f5" stroke="#e0e0e0" rx="8"/>
  <text x="40" y="730" font-size="14" font-weight="bold">Best Partner: Mike Chen</text>
  <text x="40" y="750" font-size="12" fill="#666">3 wins, 0 losses together</text>
  
  <!-- Bottom Navigation -->
  <rect x="0" y="720" width="360" height="80" fill="#f5f5f5" stroke="#e0e0e0"/>
  <text x="90" y="765" font-size="12" text-anchor="middle">Dashboard</text>
  <text x="180" y="765" font-size="12" text-anchor="middle">Rankings</text>
  <text x="270" y="765" font-size="12" text-anchor="middle" font-weight="bold">Profile</text>
  
  <!-- Navigation Icons -->
  <circle cx="90" cy="745" r="12" fill="#e0e0e0"/>
  <circle cx="180" cy="745" r="12" fill="#e0e0e0"/>
  <circle cx="270" cy="745" r="12" fill="#4CAF50"/>
  
  <!-- Annotations -->
  <text x="30" y="20" font-size="10" fill="#888">Players can claim their name and manage email</text>
  <text x="30" y="780" font-size="10" fill="#888">Shows personal stats and match history</text>
</svg>