<?xml version="1.0" encoding="UTF-8"?>
<svg width="1200" height="800" xmlns="http://www.w3.org/2000/svg">
  <!-- Screen Background -->
  <rect width="1200" height="800" fill="#f5f5f5"/>
  
  <!-- Sidebar -->
  <rect width="240" height="800" fill="#2c3e50"/>
  <text x="20" y="40" fill="white" font-size="24" font-weight="bold" font-family="Arial">Pickleball</text>
  <text x="20" y="65" fill="#ecf0f1" font-size="14" font-family="Arial">Organizer Dashboard</text>
  
  <!-- Sidebar Menu -->
  <rect x="0" y="100" width="240" height="48" fill="#34495e"/>
  <text x="20" y="128" fill="white" font-size="16" font-family="Arial">📋 Play Dates</text>
  
  <rect x="0" y="148" width="240" height="48" fill="#34495e"/>
  <text x="20" y="176" fill="white" font-size="16" font-family="Arial">👥 Players</text>
  
  <rect x="0" y="196" width="240" height="48" fill="#4CAF50"/>
  <text x="20" y="224" fill="white" font-size="16" font-family="Arial">📊 Analytics</text>
  
  <rect x="0" y="244" width="240" height="48" fill="#34495e"/>
  <text x="20" y="272" fill="white" font-size="16" font-family="Arial">📅 Schedule</text>
  
  <!-- Main Content Area -->
  <rect x="280" y="40" width="880" height="720" rx="8" fill="white" stroke="#e0e0e0"/>
  
  <!-- Header -->
  <text x="320" y="90" font-size="28" font-weight="bold" font-family="Arial">Partnership Analytics</text>
  <text x="320" y="115" font-size="16" fill="#666" font-family="Arial">Saturday Tournament - July 12, 2025 • Performance Insights</text>
  
  <!-- Analytics Overview -->
  <rect x="320" y="140" width="800" height="60" rx="8" fill="#f0f8ff" stroke="#2196F3"/>
  <text x="340" y="165" font-size="18" font-weight="bold" font-family="Arial">📈 Tournament Analytics</text>
  <text x="340" y="185" font-size="14" fill="#666" font-family="Arial">Partnership-based performance tracking with materialized view optimization</text>
  
  <!-- Performance Metrics Grid -->
  <text x="320" y="235" font-size="18" font-weight="bold" font-family="Arial">Performance Metrics</text>
  
  <!-- Metric Cards Row 1 -->
  <rect x="320" y="250" width="180" height="100" rx="8" fill="#e8f5e9" stroke="#4CAF50"/>
  <text x="330" y="275" font-size="14" font-family="Arial">Total Matches</text>
  <text x="330" y="315" font-size="36" font-weight="bold" fill="#4CAF50" font-family="Arial">12</text>
  <text x="330" y="335" font-size="12" fill="#666" font-family="Arial">Complete tournament</text>
  
  <rect x="520" y="250" width="180" height="100" rx="8" fill="#fff3e0" stroke="#FF9800"/>
  <text x="530" y="275" font-size="14" font-family="Arial">Avg Match Duration</text>
  <text x="530" y="315" font-size="36" font-weight="bold" fill="#FF9800" font-family="Arial">18</text>
  <text x="530" y="335" font-size="12" fill="#666" font-family="Arial">minutes per match</text>
  
  <rect x="720" y="250" width="180" height="100" rx="8" fill="#f0f8ff" stroke="#2196F3"/>
  <text x="730" y="275" font-size="14" font-family="Arial">Total Points</text>
  <text x="730" y="315" font-size="36" font-weight="bold" fill="#2196F3" font-family="Arial">234</text>
  <text x="730" y="335" font-size="12" fill="#666" font-family="Arial">across all matches</text>
  
  <rect x="920" y="250" width="180" height="100" rx="8" fill="#ffebee" stroke="#f44336"/>
  <text x="930" y="275" font-size="14" font-family="Arial">Closest Match</text>
  <text x="930" y="315" font-size="36" font-weight="bold" fill="#f44336" font-family="Arial">1</text>
  <text x="930" y="335" font-size="12" fill="#666" font-family="Arial">point difference</text>
  
  <!-- Partnership Performance Table -->
  <text x="320" y="385" font-size="18" font-weight="bold" font-family="Arial">Partnership Performance</text>
  
  <rect x="320" y="400" width="800" height="240" rx="8" fill="white" stroke="#e0e0e0"/>
  
  <!-- Table Header -->
  <rect x="330" y="410" width="780" height="36" fill="#f5f5f5" stroke="#e0e0e0"/>
  <text x="340" y="432" font-size="14" font-weight="bold" font-family="Arial">Partnership</text>
  <text x="480" y="432" font-size="14" font-weight="bold" font-family="Arial">Players</text>
  <text x="650" y="432" font-size="14" font-weight="bold" font-family="Arial">W-L</text>
  <text x="720" y="432" font-size="14" font-weight="bold" font-family="Arial">Win%</text>
  <text x="780" y="432" font-size="14" font-weight="bold" font-family="Arial">Pts For</text>
  <text x="850" y="432" font-size="14" font-weight="bold" font-family="Arial">Pts Against</text>
  <text x="940" y="432" font-size="14" font-weight="bold" font-family="Arial">+/-</text>
  <text x="1000" y="432" font-size="14" font-weight="bold" font-family="Arial">Efficiency</text>
  
  <!-- Table Rows -->
  <!-- Team A -->
  <rect x="330" y="446" width="780" height="44" fill="#e8f5e9" stroke="#4CAF50"/>
  <circle cx="355" cy="468" r="16" fill="#2196F3"/>
  <text x="355" y="474" text-anchor="middle" fill="white" font-size="12" font-weight="bold" font-family="Arial">A</text>
  <text x="380" y="472" font-size="14" font-weight="bold" font-family="Arial">Team A</text>
  <text x="480" y="472" font-size="14" font-family="Arial">John Smith & Mary Johnson</text>
  <text x="650" y="472" font-size="14" font-weight="bold" font-family="Arial">2-1</text>
  <text x="720" y="472" font-size="14" font-weight="bold" fill="#4CAF50" font-family="Arial">67%</text>
  <text x="780" y="472" font-size="14" font-family="Arial">28</text>
  <text x="850" y="472" font-size="14" font-family="Arial">23</text>
  <text x="940" y="472" font-size="14" font-weight="bold" fill="#4CAF50" font-family="Arial">+5</text>
  <text x="1000" y="472" font-size="14" font-family="Arial">9.3</text>
  
  <!-- Team B -->
  <rect x="330" y="490" width="780" height="44" fill="#ffebee" stroke="#f44336"/>
  <circle cx="355" cy="512" r="16" fill="#2196F3"/>
  <text x="355" y="518" text-anchor="middle" fill="white" font-size="12" font-weight="bold" font-family="Arial">B</text>
  <text x="380" y="516" font-size="14" font-weight="bold" font-family="Arial">Team B</text>
  <text x="480" y="516" font-size="14" font-family="Arial">Bob Wilson & Alice Brown</text>
  <text x="650" y="516" font-size="14" font-weight="bold" font-family="Arial">1-2</text>
  <text x="720" y="516" font-size="14" font-weight="bold" fill="#f44336" font-family="Arial">33%</text>
  <text x="780" y="516" font-size="14" font-family="Arial">23</text>
  <text x="850" y="516" font-size="14" font-family="Arial">28</text>
  <text x="940" y="516" font-size="14" font-weight="bold" fill="#f44336" font-family="Arial">-5</text>
  <text x="1000" y="516" font-size="14" font-family="Arial">7.7</text>
  
  <!-- Team C -->
  <rect x="330" y="534" width="780" height="44" fill="#e8f5e9" stroke="#4CAF50"/>
  <circle cx="355" cy="556" r="16" fill="#2196F3"/>
  <text x="355" y="562" text-anchor="middle" fill="white" font-size="12" font-weight="bold" font-family="Arial">C</text>
  <text x="380" y="560" font-size="14" font-weight="bold" font-family="Arial">Team C</text>
  <text x="480" y="560" font-size="14" font-family="Arial">Tom Davis & Lisa Miller</text>
  <text x="650" y="560" font-size="14" font-weight="bold" font-family="Arial">3-0</text>
  <text x="720" y="560" font-size="14" font-weight="bold" fill="#FFD700" font-family="Arial">100%</text>
  <text x="780" y="560" font-size="14" font-family="Arial">33</text>
  <text x="850" y="560" font-size="14" font-family="Arial">18</text>
  <text x="940" y="560" font-size="14" font-weight="bold" fill="#4CAF50" font-family="Arial">+15</text>
  <text x="1000" y="560" font-size="14" font-family="Arial">11.0</text>
  
  <!-- Team D -->
  <rect x="330" y="578" width="780" height="44" fill="#ffebee" stroke="#f44336"/>
  <circle cx="355" cy="600" r="16" fill="#2196F3"/>
  <text x="355" y="606" text-anchor="middle" fill="white" font-size="12" font-weight="bold" font-family="Arial">D</text>
  <text x="380" y="604" font-size="14" font-weight="bold" font-family="Arial">Team D</text>
  <text x="480" y="604" font-size="14" font-family="Arial">Mike Thompson & Sarah Lee</text>
  <text x="650" y="604" font-size="14" font-weight="bold" font-family="Arial">0-3</text>
  <text x="720" y="604" font-size="14" font-weight="bold" fill="#f44336" font-family="Arial">0%</text>
  <text x="780" y="604" font-size="14" font-family="Arial">18</text>
  <text x="850" y="604" font-size="14" font-family="Arial">33</text>
  <text x="940" y="604" font-size="14" font-weight="bold" fill="#f44336" font-family="Arial">-15</text>
  <text x="1000" y="604" font-size="14" font-family="Arial">6.0</text>
  
  <!-- Match Matrix -->
  <text x="320" y="675" font-size="18" font-weight="bold" font-family="Arial">Head-to-Head Matrix</text>
  
  <rect x="320" y="690" width="380" height="60" rx="8" fill="#f9f9f9" stroke="#e0e0e0"/>
  <text x="330" y="710" font-size="14" font-weight="bold" font-family="Arial">Partnership vs Partnership Results</text>
  <text x="330" y="730" font-size="12" fill="#666" font-family="Arial">A vs B: 11-7 (A wins) • A vs C: 8-11 (C wins) • A vs D: 11-5 (A wins)</text>
  <text x="330" y="745" font-size="12" fill="#666" font-family="Arial">B vs C: 6-11 (C wins) • B vs D: 11-9 (B wins) • C vs D: 11-4 (C wins)</text>
  
  <!-- Export Actions -->
  <rect x="720" y="690" width="140" height="60" rx="8" fill="#2196F3"/>
  <text x="790" y="720" text-anchor="middle" fill="white" font-size="16" font-weight="bold" font-family="Arial">Export Report</text>
  <text x="790" y="740" text-anchor="middle" fill="white" font-size="12" font-family="Arial">CSV/JSON</text>
  
  <rect x="880" y="690" width="140" height="60" rx="8" fill="#4CAF50"/>
  <text x="950" y="720" text-anchor="middle" fill="white" font-size="16" font-weight="bold" font-family="Arial">Print Analytics</text>
  <text x="950" y="740" text-anchor="middle" fill="white" font-size="12" font-family="Arial">PDF Report</text>
  
  <rect x="1040" y="690" width="80" height="60" rx="8" fill="#FF9800"/>
  <text x="1080" y="720" text-anchor="middle" fill="white" font-size="16" font-weight="bold" font-family="Arial">Share</text>
  <text x="1080" y="740" text-anchor="middle" fill="white" font-size="12" font-family="Arial">Link</text>
  
  <!-- Annotations -->
  <g transform="translate(1160, 170)">
    <line x1="0" y1="0" x2="40" y2="0" stroke="#ff5722" stroke-width="2"/>
    <rect x="45" y="-14" width="200" height="28" fill="#ff5722" rx="4"/>
    <text x="55" y="4" fill="white" font-size="12" font-family="Arial">Enhanced reporting capability</text>
  </g>
  
  <g transform="translate(1160, 325)">
    <line x1="0" y1="0" x2="40" y2="0" stroke="#ff5722" stroke-width="2"/>
    <rect x="45" y="-14" width="200" height="28" fill="#ff5722" rx="4"/>
    <text x="55" y="4" fill="white" font-size="12" font-family="Arial">Real-time performance metrics</text>
  </g>
  
  <g transform="translate(1160, 512)">
    <line x1="0" y1="0" x2="40" y2="0" stroke="#ff5722" stroke-width="2"/>
    <rect x="45" y="-14" width="200" height="28" fill="#ff5722" rx="4"/>
    <text x="55" y="4" fill="white" font-size="12" font-family="Arial">Partnership-based statistics</text>
  </g>
  
  <g transform="translate(1160, 720)">
    <line x1="0" y1="0" x2="40" y2="0" stroke="#ff5722" stroke-width="2"/>
    <rect x="45" y="-14" width="200" height="28" fill="#ff5722" rx="4"/>
    <text x="55" y="4" fill="white" font-size="12" font-family="Arial">Materialized view optimization</text>
  </g>
</svg>